<svg width="158" height="176" viewBox="0 0 158 176" fill="none" xmlns="http://www.w3.org/2000/svg">
<path d="M78 168H67V169.786L70.1429 171.929L75.381 173H78" stroke="#D1D5DB" stroke-width="5"/>
<path d="M77 168H88V169.786L84.8571 171.929L79.619 173H77" stroke="#D1D5DB" stroke-width="5"/>
<path d="M78.5 29L65.5 30.5L54.5 36L46.5 42.5L40.5 51.5L37 61.5V72V82.5L40.5 91.5C42.5 94.6667 46.5 101.3 46.5 102.5C46.5 103.7 49.8333 111 51.5 114.5L54.5 127.5L58 139L65.5 141.5H75.5" stroke="#D1D5DB" stroke-width="5"/>
<path d="M77 29L90 30.5L101 36L109 42.5L115 51.5L118.5 61.5V72V82.5L115 91.5C113 94.6667 109 101.3 109 102.5C109 103.7 105.667 111 104 114.5L101 127.5L97.5 139L90 141.5H80" stroke="#D1D5DB" stroke-width="5"/>
<path d="M74 141.5H82.5" stroke="#D1D5DB" stroke-width="5"/>
<path d="M63 148H93.5" stroke="#D1D5DB" stroke-width="5"/>
<path d="M63 155H93.5" stroke="#D1D5DB" stroke-width="5"/>
<path d="M63 162H93.5" stroke="#D1D5DB" stroke-width="5"/>
<path d="M26.8863 51.826L2.44946 39.4127" stroke="#D1D5DB" stroke-width="5"/>
<path d="M53.6924 24.9347L38.6841 2" stroke="#D1D5DB" stroke-width="5"/>
<path d="M131.49 51.826L155.927 39.4127" stroke="#D1D5DB" stroke-width="5"/>
<path d="M104.684 24.9347L119.692 2" stroke="#D1D5DB" stroke-width="5"/>
</svg>
